<?xml version="1.0" encoding="UTF-8"?> <svg xmlns="http://www.w3.org/2000/svg" xmlns:xlink="http://www.w3.org/1999/xlink" version="1.1" id="Capa_1" x="0px" y="0px" width="1406.6px" height="301.6px" viewBox="0 0 1406.6 301.6" style="enable-background:new 0 0 1406.6 301.6;" xml:space="preserve"> <style type="text/css"> .st0{fill:#0D0305;} .st1{fill:#FF5983;} </style> <path class="st0" d="M431,204.4h-25V57.6h25V204.4z"></path> <path class="st0" d="M483.5,111.3c4.5-8.5,15.5-16.8,33.1-16.8c26,0,39.9,17.4,39.9,42.4v67.4h-24.6v-64.3 c0-14.7-6.6-24.4-21.3-24.4c-15.5,0-25.2,9.7-25.2,26.5v62.2h-24.6V97.1h22.8V111.3z"></path> <path class="st0" d="M779.3,97.1h24.6v107.3h-22.7v-13.8c-4.5,8.5-15.3,16.3-32.7,16.3c-26,0-39.5-17.2-39.5-42.2V97.1h24.6v64.3 c0,14.7,6,24.4,20.9,24.4c15.3,0,24.8-9.3,24.8-26.9V97.1z"></path> <path class="st0" d="M850.3,157.9c1.9,17,12.8,27.9,30,27.9c11.4,0,21.1-5.8,25-15.3h24.8c-6.4,21.3-25.4,36.4-50.5,36.4 c-32.5,0-53.6-24.2-53.6-56.2c0-31.2,21.5-56,53.3-56s52.7,24.2,52.7,55.6c0,3.9-0.2,7.6-0.2,7.6L850.3,157.9z M850.7,139.7h57.1 c-2.1-14.9-12.4-25-28.3-25S853.2,125,850.7,139.7L850.7,139.7z"></path> <path class="st0" d="M975,111.3c4.5-8.5,15.5-16.8,33.1-16.8c26,0,39.9,17.4,39.9,42.4v67.4h-24.6v-64.3c0-14.7-6.6-24.4-21.3-24.4 c-15.5,0-25.2,9.7-25.2,26.5v62.2h-24.6V97.1H975L975,111.3z"></path> <path class="st0" d="M1120.9,94.6c31.8,0,48,22.1,50.9,41.3h-25.2c-2.9-11.6-12.6-19.6-25.8-19.6c-17.6,0-28.7,14.3-28.7,34.5 c0,20.1,11.2,34.3,28.7,34.3c13.2,0,23-8.1,25.8-19.6h25.2c-2.9,19.2-19,41.4-50.9,41.4c-31.6,0-53.6-25-53.6-56 C1067.4,119.6,1089.3,94.6,1120.9,94.6z"></path> <path class="st0" d="M686.9,181c-5.4,0-9.1-2.5-9.1-8.3V49.3h-52.3c-20.5,0-34.7,11.2-34.7,36.4v11.4h-17.2v19.6h17.2v87.7h24.6 v-87.7h18.5V97.1h-18.5v-9.9c0-11.8,3.9-15.9,13.8-15.9h24v101.1c0,21.5,9.1,32.5,30.6,32.5h10.4V181H686.9z"></path> <path class="st0" d="M1189.6,65c0-9.1,6.4-15.5,15.5-15.5c8.9,0,15.3,6.4,15.3,15.5c0,8.9-6.4,15.1-15.3,15.1 C1196,80.1,1189.6,73.9,1189.6,65z M1192.7,97.1h24.6v107.3h-24.6L1192.7,97.1z"></path> <path class="st0" d="M1380.9,97.1l-29.6,77.8l-29.2-77.7h-52.1V69.2h-24.6v104.2c0,20.3,9.5,31.6,31.4,31.6h20.9v-21.5h-15.7 c-8.5,0-12-4.1-12-12.6v-54.2h33.8l35.2,86.9l-18.2,43.8h24.4l61.2-150.3L1380.9,97.1z"></path> <path class="st1" d="M310.3,168.2H201.7l14.5-34.7H254c27.2,0,49.2-22.1,49.2-49.3C303.2,57,281.2,35,254,35 c-19.8,0-37.6,11.9-45.4,30.1L194,100.3h-35.7L199.9,0h-36l-41.6,100.3H13.8L0,133.5h108.6l-14.4,34.7H56.3 c-27.2,0-49.2,22.1-49.2,49.3s22.1,49.2,49.3,49.2c19.8,0,37.7-11.8,45.4-30.1l14.6-35.2H152l-41.7,100.2h36l41.6-100.2h108.6 L310.3,168.2z M239.2,77.9c3.5-8.1,12.9-11.9,21-8.4c8.1,3.5,11.9,12.9,8.4,21c-2.5,5.9-8.3,9.7-14.6,9.7h-24L239.2,77.9z M71,223.7 c-3.5,8.1-12.9,11.9-21,8.4s-11.9-12.9-8.4-21c2.5-5.9,8.3-9.7,14.7-9.7h24L71,223.7z M165.7,168.1h-35.6l14.4-34.7h35.7 L165.7,168.1z"></path> </svg> 