<?xml version="1.0" encoding="UTF-8"?> <svg xmlns="http://www.w3.org/2000/svg" id="Warstwa_1" data-name="Warstwa 1" width="586.51" height="143.67" viewBox="0 0 586.51 143.67"><defs><style>.cls-1{fill:#2e2f30;}.cls-2{fill:#4271ff;}</style></defs><path class="cls-1" d="M241.51,86.26V54.1H232a2.48,2.48,0,0,1-2.64-2.64V47.62a2.84,2.84,0,0,1,.72-2,2.49,2.49,0,0,1,1.92-.78h9.48v-20a2.84,2.84,0,0,1,.72-2,2.49,2.49,0,0,1,1.92-.78h5.28a2.68,2.68,0,0,1,2,.78,2.71,2.71,0,0,1,.78,2v20h14.88a2.68,2.68,0,0,1,2,.78,2.71,2.71,0,0,1,.78,2v3.84a2.49,2.49,0,0,1-.78,1.92,2.81,2.81,0,0,1-2,.72H252.19V85.42q0,6.12,2,9.24c1.32,2.09,3.58,3.12,6.78,3.12h7.32a2.49,2.49,0,0,1,1.92.78,2.84,2.84,0,0,1,.72,2v4a2.81,2.81,0,0,1-.72,2,2.45,2.45,0,0,1-1.92.78h-8.16Q241.51,107.26,241.51,86.26Z"></path><path class="cls-1" d="M293.77,106.06a20.3,20.3,0,0,1-7.92-6.54,15.5,15.5,0,0,1-2.94-9.18,15.7,15.7,0,0,1,6.48-13q6.48-5,17.64-6.72l18-2.52V64.66q0-12.34-14.28-12.36a15.87,15.87,0,0,0-8.88,2.22A14.3,14.3,0,0,0,297,59.74a3.88,3.88,0,0,1-1,1.62,2.33,2.33,0,0,1-1.5.42h-4.68a2.5,2.5,0,0,1-1.86-.78,2.54,2.54,0,0,1-.78-1.86c0-1.84.86-4,2.58-6.42a21,21,0,0,1,8-6.36,29.3,29.3,0,0,1,13.2-2.7q13.44,0,19.26,6.24A22,22,0,0,1,336,65.5v39a2.68,2.68,0,0,1-.78,2,2.64,2.64,0,0,1-2,.78h-5.28a2.45,2.45,0,0,1-1.92-.78,2.81,2.81,0,0,1-.72-2V99.22a20.18,20.18,0,0,1-7.68,6.6q-5,2.64-13,2.64A24.68,24.68,0,0,1,293.77,106.06ZM320,94.54q5-5.15,5-15V76.18l-14,2q-8.64,1.2-13.08,4.08t-4.44,7.2a8.49,8.49,0,0,0,4,7.56A16.9,16.9,0,0,0,307,99.7,17.29,17.29,0,0,0,320,94.54Z"></path><path class="cls-1" d="M360.19,130.3q-6-3.36-8.46-7.68a15.69,15.69,0,0,1-2.46-7.44,2.45,2.45,0,0,1,.84-1.86,2.74,2.74,0,0,1,1.92-.78h5.28a2.92,2.92,0,0,1,1.8.54,4,4,0,0,1,1.2,2q3.36,9.6,15.24,9.6,9,0,13.32-3.84t4.32-13.56V99q-7,8.89-19.44,8.88-12.72,0-19-8.16t-6.66-20.64L348,75.7l.12-3.24q.36-12.34,6.66-20.58t19-8.22q12.6,0,19.68,9.24V47.74a2.91,2.91,0,0,1,.78-2,2.62,2.62,0,0,1,2-.84h5.16a2.62,2.62,0,0,1,2,.84,2.91,2.91,0,0,1,.78,2v58.2q0,27.72-28,27.72Q366.19,133.66,360.19,130.3ZM388.57,93a22.5,22.5,0,0,0,4.62-13.14c.08-.72.12-2.11.12-4.2s0-3.36-.12-4.08a22.55,22.55,0,0,0-4.62-13.14Q384.31,53,375.91,53q-8.64,0-12.54,5.46t-4.26,14.1L359,75.7l.12,3.24q.36,8.64,4.26,14.1t12.54,5.46Q384.31,98.5,388.57,93Z"></path><path class="cls-1" d="M428.35,130.3q-6-3.36-8.46-7.68a15.69,15.69,0,0,1-2.46-7.44,2.45,2.45,0,0,1,.84-1.86,2.74,2.74,0,0,1,1.92-.78h5.28a2.92,2.92,0,0,1,1.8.54,4,4,0,0,1,1.2,2q3.36,9.6,15.24,9.6,9,0,13.32-3.84t4.32-13.56V99q-7,8.89-19.44,8.88-12.72,0-19-8.16t-6.66-20.64l-.12-3.36.12-3.24q.36-12.34,6.66-20.58t19-8.22q12.6,0,19.68,9.24V47.74a2.91,2.91,0,0,1,.78-2,2.62,2.62,0,0,1,2-.84h5.16a2.62,2.62,0,0,1,2,.84,2.91,2.91,0,0,1,.78,2v58.2q0,27.72-28,27.72Q434.35,133.66,428.35,130.3ZM456.73,93a22.5,22.5,0,0,0,4.62-13.14c.08-.72.12-2.11.12-4.2s0-3.36-.12-4.08a22.55,22.55,0,0,0-4.62-13.14Q452.47,53,444.07,53q-8.64,0-12.54,5.46t-4.26,14.1l-.12,3.12.12,3.24q.36,8.64,4.26,14.1t12.54,5.46Q452.47,98.5,456.73,93Z"></path><path class="cls-1" d="M492.43,100.84q-7.32-7.62-8-20.82l-.12-4.08.12-4q.72-13,8-20.64T512,43.66q13.2,0,20.46,8.4t7.26,22.8V77a2.68,2.68,0,0,1-.78,2,2.64,2.64,0,0,1-2,.78H495.31v1.08a22.25,22.25,0,0,0,4.8,13.32,14.31,14.31,0,0,0,11.76,5.52,17,17,0,0,0,9.18-2.22,19.41,19.41,0,0,0,5.34-4.62,6.39,6.39,0,0,1,1.68-1.74,5.12,5.12,0,0,1,2-.3h5.28a3,3,0,0,1,1.86.6A1.89,1.89,0,0,1,538,93q0,2.65-3.24,6.36a26.36,26.36,0,0,1-9.18,6.42,32.59,32.59,0,0,1-13.62,2.7Q499.75,108.46,492.43,100.84Zm36.36-29.22v-.36q0-8.39-4.56-13.68A15.35,15.35,0,0,0,512,52.3q-7.8,0-12.24,5.28t-4.44,13.68v.36Z"></path><path class="cls-1" d="M552.49,106.48a2.68,2.68,0,0,1-.78-2V47.74a2.91,2.91,0,0,1,.78-2,2.62,2.62,0,0,1,2-.84h5a2.69,2.69,0,0,1,2.88,2.88V53q4.92-8.16,16.68-8.16h4.68a2.51,2.51,0,0,1,2.76,2.76v4.44a2.81,2.81,0,0,1-.72,2,2.6,2.6,0,0,1-2,.78h-6.84q-6.6,0-10.38,3.84T562.75,69.1v35.4a2.58,2.58,0,0,1-.84,2,2.85,2.85,0,0,1-2,.78h-5.4A2.64,2.64,0,0,1,552.49,106.48Z"></path><path class="cls-2" d="M144.1,5.83a6,6,0,0,1-6,6.16h-60a0,0,0,0,0,0,0V137.47a6.13,6.13,0,0,1-4.68,6.06,6,6,0,0,1-7.32-5.86V12a0,0,0,0,0,0,0H6A6,6,0,0,1,0,5.83,6.18,6.18,0,0,1,6.28,0H137.82A6.18,6.18,0,0,1,144.1,5.83Z"></path><path class="cls-2" d="M55.82,28.07V137.4A6.18,6.18,0,0,1,50,143.67a6,6,0,0,1-6.14-6V34.07a0,0,0,0,0,0,0H6a6,6,0,1,1,0-12H49.79A6,6,0,0,1,55.82,28.07Z"></path><path class="cls-2" d="M143.64,29.36A6.14,6.14,0,0,1,137.58,34H100a0,0,0,0,0,0,0v103.4a6.13,6.13,0,0,1-4.68,6.06A6,6,0,0,1,88,137.67V28.07a6,6,0,0,1,6-6h43.79A6,6,0,0,1,143.64,29.36Z"></path></svg> 