<?xml version="1.0" encoding="UTF-8"?> <svg xmlns="http://www.w3.org/2000/svg" width="387" height="167" viewBox="0 0 387 167" fill="none"><rect x="155.736" y="52.2632" width="37.2632" height="37.2632" stroke="#4FFACA" stroke-width="10.8684"></rect><rect x="192.999" y="15" width="37.2632" height="37.2632" stroke="#4FFACA" stroke-width="10.8684"></rect><path d="M6.65 152.85V160.8H31.6V166.35H0V134H31.55V139.55H6.65V147.6H27.05V152.85H6.65Z" fill="#181C28"></path><path d="M38.0777 134H72.1777V139.55H38.0777V134ZM51.8277 138.85H58.4777V166.35H51.8277V138.85Z" fill="#181C28"></path><path d="M86.1617 152.85V160.8H111.112V166.35H79.5117V134H111.062V139.55H86.1617V147.6H106.562V152.85H86.1617Z" fill="#181C28"></path><path d="M120.439 166.35V134H142.389C144.889 134 147.056 134.35 148.889 135.05C150.756 135.717 152.206 136.783 153.239 138.25C154.273 139.683 154.789 141.533 154.789 143.8C154.789 145.333 154.523 146.633 153.989 147.7C153.456 148.767 152.706 149.633 151.739 150.3C150.806 150.967 149.723 151.483 148.489 151.85C147.256 152.183 145.939 152.4 144.539 152.5L143.839 152.1C146.173 152.133 148.089 152.333 149.589 152.7C151.089 153.033 152.206 153.667 152.939 154.6C153.706 155.5 154.089 156.85 154.089 158.65V166.35H147.439V159.1C147.439 157.867 147.223 156.917 146.789 156.25C146.356 155.55 145.573 155.067 144.439 154.8C143.339 154.533 141.739 154.4 139.639 154.4H127.089V166.35H120.439ZM127.089 149.2H142.389C144.256 149.2 145.673 148.75 146.639 147.85C147.639 146.95 148.139 145.733 148.139 144.2C148.139 142.733 147.639 141.617 146.639 140.85C145.673 140.083 144.256 139.7 142.389 139.7H127.089V149.2Z" fill="#181C28"></path><path d="M197.048 159.75L194.948 160.6V134H201.598V166.35H194.948L168.798 140.8L170.898 139.95V166.35H164.248V134H170.898L197.048 159.75Z" fill="#181C28"></path><path d="M216.866 159.3V153.75H238.266V159.3H216.866ZM208.816 166.35L224.016 134H231.216L246.566 166.35H239.316L226.016 137.2H229.216L216.016 166.35H208.816Z" fill="#181C28"></path><path d="M260.42 134V160.8H281.92V166.35H253.77V134H260.42Z" fill="#181C28"></path><path d="M296.242 160.792V166.302H288.944V160.792H296.242Z" fill="#181C28"></path><path d="M320.875 166.93C317.975 166.93 315.349 166.592 312.997 165.915C310.677 165.239 308.664 164.224 306.956 162.87C305.281 161.517 303.992 159.842 303.09 157.844C302.187 155.846 301.736 153.543 301.736 150.933C301.736 148.291 302.203 145.955 303.138 143.925C304.104 141.863 305.458 140.123 307.198 138.705C308.97 137.288 311.064 136.224 313.48 135.516C315.929 134.775 318.636 134.404 321.6 134.404C325.112 134.404 328.141 134.903 330.686 135.902C333.231 136.869 335.229 138.238 336.679 140.01C338.161 141.782 338.999 143.893 339.192 146.342H333.006C332.587 145.053 331.894 143.941 330.928 143.007C329.993 142.04 328.753 141.299 327.206 140.784C325.66 140.236 323.791 139.962 321.6 139.962C318.797 139.962 316.396 140.413 314.399 141.315C312.433 142.217 310.935 143.49 309.904 145.133C308.873 146.777 308.358 148.71 308.358 150.933C308.358 153.092 308.809 154.96 309.711 156.539C310.613 158.086 311.998 159.278 313.867 160.116C315.768 160.953 318.185 161.372 321.117 161.372C323.372 161.372 325.354 161.082 327.061 160.502C328.801 159.89 330.251 159.085 331.411 158.086C332.571 157.055 333.392 155.911 333.876 154.654L336.389 153.736C335.97 157.892 334.391 161.131 331.653 163.45C328.946 165.77 325.354 166.93 320.875 166.93ZM334.746 166.302C334.746 165.303 334.81 164.159 334.939 162.87C335.068 161.549 335.229 160.228 335.422 158.907C335.616 157.554 335.793 156.314 335.954 155.186H321.648V151.078H340.304V166.302H334.746Z" fill="#181C28"></path><path d="M367.468 166.93C364.568 166.93 361.942 166.592 359.59 165.915C357.27 165.239 355.257 164.224 353.549 162.87C351.874 161.517 350.585 159.842 349.683 157.844C348.781 155.846 348.329 153.543 348.329 150.933C348.329 148.291 348.797 145.955 349.731 143.925C350.698 141.863 352.051 140.123 353.791 138.705C355.563 137.288 357.657 136.224 360.074 135.516C362.522 134.775 365.229 134.404 368.193 134.404C371.705 134.404 374.734 134.903 377.279 135.902C379.824 136.869 381.822 138.238 383.272 140.01C384.754 141.782 385.592 143.893 385.785 146.342H379.599C379.18 145.053 378.487 143.941 377.521 143.007C376.586 142.04 375.346 141.299 373.799 140.784C372.253 140.236 370.384 139.962 368.193 139.962C365.39 139.962 362.99 140.413 360.992 141.315C359.026 142.217 357.528 143.49 356.497 145.133C355.466 146.777 354.951 148.71 354.951 150.933C354.951 153.092 355.402 154.96 356.304 156.539C357.206 158.086 358.592 159.278 360.46 160.116C362.361 160.953 364.778 161.372 367.71 161.372C369.965 161.372 371.947 161.082 373.654 160.502C375.394 159.89 376.844 159.085 378.004 158.086C379.164 157.055 379.986 155.911 380.469 154.654L382.982 153.736C382.563 157.892 380.984 161.131 378.246 163.45C375.539 165.77 371.947 166.93 367.468 166.93ZM381.339 166.302C381.339 165.303 381.403 164.159 381.532 162.87C381.661 161.549 381.822 160.228 382.015 158.907C382.209 157.554 382.386 156.314 382.547 155.186H368.241V151.078H386.897V166.302H381.339Z" fill="#181C28"></path></svg> 