<?xml version="1.0" encoding="UTF-8"?> <svg xmlns="http://www.w3.org/2000/svg" id="a" width="1000" height="140.12" viewBox="0 0 1000 140.12"><defs><style>.b{fill:#d42317;}.c{fill:#163a62;}.d{fill:#056982;}</style></defs><g><path class="b" d="M189.35,64.76L215.38,7.12c.26-.51,.69-.94,1.46-.94h.86c.77,0,1.2,.43,1.46,.94l25.86,57.64c.51,1.11-.17,2.23-1.46,2.23h-3.43c-.77,0-1.28-.51-1.46-.94l-6.34-14.13h-30.4l-6.25,14.13c-.17,.43-.68,.94-1.46,.94h-3.43c-1.28,0-1.97-1.11-1.46-2.23Zm40.68-18.16c-4.2-9.34-8.31-18.76-12.5-28.09h-.68l-12.5,28.09h25.69Z"></path><path class="b" d="M297.6,6.18c8.65,0,14.9,3,20.73,7.96,.68,.68,.77,1.71,.09,2.4l-2.31,2.31c-.69,.86-1.37,.77-2.23-.09-4.45-3.85-10.53-6.42-16.36-6.42-13.53,0-23.89,11.39-23.89,24.67s10.36,24.58,23.89,24.58c7.45,0,11.82-3,16.36-6.42,.86-.69,1.54-.6,2.06-.26l2.57,2.31c.69,.51,.51,1.71-.09,2.31-5.82,5.65-13.19,8.31-20.81,8.31-17.13,0-30.92-13.62-30.92-30.75s13.79-30.92,30.92-30.92Z"></path><path class="b" d="M374.93,6.18c8.65,0,14.9,3,20.73,7.96,.68,.68,.77,1.71,.09,2.4l-2.31,2.31c-.69,.86-1.37,.77-2.23-.09-4.45-3.85-10.53-6.42-16.36-6.42-13.53,0-23.89,11.39-23.89,24.67s10.36,24.58,23.89,24.58c7.45,0,11.82-3,16.36-6.42,.86-.69,1.54-.6,2.06-.26l2.57,2.31c.68,.51,.51,1.71-.09,2.31-5.82,5.65-13.19,8.31-20.81,8.31-17.13,0-30.92-13.62-30.92-30.75s13.79-30.92,30.92-30.92Z"></path><path class="b" d="M425.96,8.67c0-.86,.69-1.63,1.63-1.63h33.74c.94,0,1.63,.77,1.63,1.63v2.48c0,.86-.68,1.63-1.63,1.63h-28.78v20.9h24.58c.86,0,1.63,.77,1.63,1.63v2.48c0,.94-.77,1.63-1.63,1.63h-24.58v21.84h28.78c.94,0,1.63,.77,1.63,1.63v2.48c0,.86-.68,1.63-1.63,1.63h-33.74c-.94,0-1.63-.77-1.63-1.63V8.67Z"></path><path class="b" d="M493.7,8.67c0-.86,.69-1.63,1.63-1.63h3.34c.86,0,1.63,.77,1.63,1.63V61.25h24.67c.94,0,1.63,.77,1.63,1.63v2.48c0,.86-.69,1.63-1.63,1.63h-29.63c-.94,0-1.63-.77-1.63-1.63V8.67Z"></path><path class="b" d="M552.79,8.67c0-.86,.69-1.63,1.63-1.63h33.74c.94,0,1.63,.77,1.63,1.63v2.48c0,.86-.69,1.63-1.63,1.63h-28.78v20.9h24.58c.86,0,1.63,.77,1.63,1.63v2.48c0,.94-.77,1.63-1.63,1.63h-24.58v21.84h28.78c.94,0,1.63,.77,1.63,1.63v2.48c0,.86-.69,1.63-1.63,1.63h-33.74c-.94,0-1.63-.77-1.63-1.63V8.67Z"></path><path class="b" d="M620.53,8.67c0-.86,.69-1.63,1.63-1.63h22.18c10.28,0,18.67,8.05,18.67,18.24,0,7.88-5.22,14.47-12.68,17.47l11.73,21.75c.6,1.11,0,2.48-1.46,2.48h-4.37c-.77,0-1.2-.43-1.37-.77l-11.39-22.69h-16.36v21.84c0,.86-.77,1.63-1.63,1.63h-3.34c-.94,0-1.63-.77-1.63-1.63V8.67Zm23.38,29.2c6.59,0,12.33-5.48,12.33-12.5,0-6.51-5.74-12.08-12.33-12.08h-16.61v24.58h16.61Z"></path><path class="b" d="M685.96,64.76l26.04-57.64c.26-.51,.68-.94,1.46-.94h.86c.77,0,1.2,.43,1.46,.94l25.86,57.64c.51,1.11-.17,2.23-1.46,2.23h-3.43c-.77,0-1.28-.51-1.46-.94l-6.34-14.13h-30.4l-6.25,14.13c-.17,.43-.69,.94-1.46,.94h-3.43c-1.28,0-1.97-1.11-1.46-2.23Zm40.68-18.16c-4.2-9.34-8.31-18.76-12.5-28.09h-.69l-12.5,28.09h25.69Z"></path><path class="b" d="M773.14,12.78h-14.9c-.94,0-1.63-.77-1.63-1.63v-2.48c0-.86,.69-1.63,1.63-1.63h36.31c.94,0,1.63,.77,1.63,1.63v2.48c0,.86-.69,1.63-1.63,1.63h-14.9v52.58c0,.86-.77,1.63-1.63,1.63h-3.25c-.86,0-1.63-.77-1.63-1.63V12.78Z"></path><path class="b" d="M822.64,8.67c0-.86,.77-1.63,1.63-1.63h3.43c.86,0,1.63,.77,1.63,1.63v56.7c0,.86-.77,1.63-1.63,1.63h-3.43c-.86,0-1.63-.77-1.63-1.63V8.67Z"></path><path class="b" d="M890.21,6.18c17.13,0,30.83,13.79,30.83,30.92s-13.7,30.75-30.83,30.75-30.75-13.62-30.75-30.75,13.62-30.92,30.75-30.92Zm0,55.67c13.62,0,24.84-11.13,24.84-24.75s-11.22-24.92-24.84-24.92-24.75,11.31-24.75,24.92,11.13,24.75,24.75,24.75Z"></path><path class="b" d="M951.18,7.72c0-.86,.77-1.54,1.63-1.54h2.14l38.63,48.13h.17V8.67c0-.86,.69-1.63,1.63-1.63h3c.86,0,1.63,.77,1.63,1.63v57.64c0,.86-.77,1.54-1.63,1.54h-1.54l-39.31-49.07h-.08v46.59c0,.86-.69,1.63-1.63,1.63h-3c-.86,0-1.63-.77-1.63-1.63V7.72Z"></path></g><g><path class="b" d="M189.87,91.53c0-.39,.33-.72,.72-.72h11.85c6.83,0,12.45,5.56,12.45,12.34s-5.62,12.51-12.4,12.51h-10.03v13c0,.39-.33,.72-.88,.72h-.99c-.38,0-.72-.33-.72-.72v-37.13Zm12.45,21.6c5.4,0,9.97-4.46,9.97-10.03s-4.57-9.7-10.03-9.7h-9.81v19.72h9.86Z"></path><path class="b" d="M226.63,128.72l16.97-38.35c.11-.22,.39-.39,.66-.39h.17c.28,0,.55,.06,.72,.39l16.8,38.35c.11,.33,.11,.66-.5,.66h-1.43c-.39,0-.66-.28-.77-.5l-4.46-10.14h-21.05l-4.41,10.14c-.11,.22-.38,.5-.77,.5h-1.54c-.39,0-.55-.22-.39-.66Zm27.22-12.12l-9.42-22.2h-.11l-9.59,22.2h19.12Z"></path><path class="b" d="M279.13,91.53c0-.39,.28-.72,.72-.72h13.66c6.72,0,12.29,5.07,12.29,11.79,0,5.56-3.86,10.03-9.09,11.51l8.04,14.27c.28,.44,.16,.99-.39,.99h-1.71c-.39,0-.61-.16-.77-.5l-7.99-14.43c-.72,.05-1.32,.05-2.04,.05h-10.14v14.16c0,.39-.33,.72-.88,.72h-.99c-.39,0-.72-.33-.72-.72v-37.13Zm14.27,20.66c5.29,0,9.75-4.13,9.75-9.59s-4.46-9.26-9.81-9.26h-11.57v18.84h11.63Z"></path><path class="b" d="M331.64,93.18h-10.52c-.55,0-.72-.33-.72-.83v-.83c0-.44,.33-.72,.72-.72h23.69c.44,0,.72,.33,.72,.72v.94c0,.39-.28,.72-.72,.72h-10.58v35.48c0,.39-.33,.72-.88,.72h-.99c-.39,0-.72-.33-.72-.72v-35.48Z"></path><path class="b" d="M362.83,90.98c0-.44,.39-.72,.83-.72h.94l26.45,34.43h.05v-33.17c0-.39,.33-.72,.72-.72h1.1c.39,0,.72,.33,.72,.72v37.69c0,.5-.44,.72-.88,.72h-.72c-.05,0-.5-.16-26.67-34.76h-.06v33.5c0,.39-.33,.72-.72,.72h-1.05c-.38,0-.72-.33-.72-.72v-37.68Z"></path><path class="b" d="M416.33,91.53c0-.39,.33-.72,.72-.72h22.09c.39,0,.72,.33,.72,.72v.94c0,.39-.33,.72-.72,.72h-20.16v15.2h17.46c.39,0,.72,.33,.72,.72v.94c0,.39-.33,.72-.72,.72h-17.46v16.31h20.16c.39,0,.72,.33,.72,.72v.88c0,.39-.33,.72-.72,.72h-22.09c-.38,0-.72-.33-.72-.72v-37.13Z"></path><path class="b" d="M460.29,91.53c0-.39,.28-.72,.72-.72h13.66c6.72,0,12.29,5.07,12.29,11.79,0,5.56-3.86,10.03-9.09,11.51l8.04,14.27c.28,.44,.16,.99-.39,.99h-1.71c-.39,0-.61-.16-.77-.5l-7.99-14.43c-.72,.05-1.32,.05-2.04,.05h-10.14v14.16c0,.39-.33,.72-.88,.72h-.99c-.38,0-.72-.33-.72-.72v-37.13Zm14.27,20.66c5.29,0,9.75-4.13,9.75-9.59s-4.46-9.26-9.81-9.26h-11.57v18.84h11.63Z"></path><path class="b" d="M504.81,124.26l.5-.66c.39-.44,.77-.61,1.21-.22,.55,.5,4.63,4.24,10.19,4.24,5.01,0,9.26-3.36,9.26-7.38,0-4.9-4.02-7.11-10.69-9.37-6.39-2.26-10.63-4.52-10.63-10.85,0-4.13,3.31-9.75,11.9-9.75,5.45,0,9.48,2.81,9.48,2.81,.22,.17,.61,.55,.22,1.16-.17,.22-.33,.5-.44,.72-.33,.44-.66,.61-1.21,.28-.16-.11-3.86-2.59-8.1-2.59-6.78,0-9.31,4.19-9.31,7.33,0,4.68,3.58,6.72,9.15,8.54,7.55,2.59,12.34,5.23,12.34,11.62,0,5.51-5.68,9.81-12.01,9.81s-10.96-3.86-11.68-4.52c-.33-.28-.61-.55-.16-1.16Z"></path></g><path class="c" d="M154.39,90.39l-1.19-1.19-12.81-12.81-.79-.79h0c-.35-.35-.92-.35-1.27,0h0l-.55,.55-36.84,36.85c-.35,.34-.92,.34-1.26,0l-36.85-36.85-.54-.54h0c-.36-.35-.92-.35-1.27,0h0l-.79,.79-12.8,12.81-1.19,1.19c-.33,.35-.33,.91,0,1.25l1.18,1.17,43.39,43.41c2.52,2.53,5.89,3.91,9.51,3.91s6.98-1.39,9.5-3.91l43.4-43.41,1.17-1.17c.35-.34,.34-.9,0-1.25"></path><path class="d" d="M159.5,53.58l-6.31-6.28-.16-.16v-.02L109.84,3.92c-2.53-2.53-5.91-3.92-9.51-3.92s-6.97,1.39-9.51,3.92L11.95,82.76h0l-6.27,6.28-5.05,5.04c-.34,.35-.63,1.04-.63,1.53v30.29c0,.48,.26,.58,.59,.29,.02-.01,.02,0,.03-.02l2.21-2.22s0-.01,.01-.02L99.69,27.13c.35-.35,.91-.35,1.27,0l52.08,52.09h0l4.24,4.23s0,.02,0,.02l2.21,2.21s.02,0,.03,.01c.34,.3,.6,.2,.6-.28v-30.3c0-.5-.28-1.18-.62-1.53"></path><path class="b" d="M542.91,92.13c2.81,0,5.11,2.3,5.11,5.11s-2.3,5.11-5.11,5.11-5.09-2.3-5.09-5.11,2.28-5.11,5.09-5.11m0,8.98c2.14,0,3.86-1.74,3.86-3.87s-1.72-3.86-3.86-3.86-3.86,1.72-3.86,3.86,1.73,3.87,3.86,3.87m-1.96-6.21c0-.14,.11-.27,.27-.27h2.3c.88,0,1.74,.71,1.74,1.84,0,.88-.48,1.32-.95,1.59l.57,1.38c.08,.18-.04,.38-.24,.38h-.96c-.11,0-.23-.1-.26-.2l-.52-1.5h-.55v1.43c0,.14-.11,.27-.27,.27h-.85c-.16,0-.27-.13-.27-.27v-4.65Zm2.33,2.07c.24,0,.45-.21,.45-.47,0-.27-.21-.47-.45-.47h-.98v.94h.98Z"></path><path class="c" d="M164.29,91.19c2.53,0,4.6,2.07,4.6,4.6s-2.07,4.6-4.6,4.6-4.59-2.07-4.59-4.6,2.06-4.6,4.59-4.6m0,8.09c1.93,0,3.48-1.57,3.48-3.49s-1.55-3.48-3.48-3.48-3.48,1.55-3.48,3.48,1.56,3.49,3.48,3.49m-1.77-5.6c0-.13,.1-.24,.24-.24h2.07c.79,0,1.57,.64,1.57,1.66,0,.79-.44,1.19-.86,1.43l.51,1.24c.08,.17-.04,.34-.22,.34h-.87c-.1,0-.2-.09-.23-.18l-.47-1.36h-.5v1.29c0,.13-.1,.24-.24,.24h-.77c-.14,0-.24-.11-.24-.24v-4.19Zm2.1,1.87c.22,0,.41-.19,.41-.42,0-.24-.19-.42-.41-.42h-.88v.84h.88Z"></path></svg> 