<?xml version="1.0" encoding="UTF-8"?> <svg xmlns="http://www.w3.org/2000/svg" id="Layer_1" data-name="Layer 1" width="349.33mm" height="55.59mm" viewBox="0 0 990.22 157.57"><defs><style>.cls-1{fill:#010101;fill-rule:evenodd;}</style></defs><path class="cls-1" d="M156.15,5.17v25.1H97.68V158.7H63.23V30.27H4.75V5.17Zm59.34,0h43.38L337.33,158.7H296.51l-17.65-34.44H190.4L174.24,158.7h-37L215.49,5.17Zm51,94L234.63,32.39l-31.9,66.77Zm118.88-94v67l64.86-67h42.31L425,74.28l75.7,84.42h-45.5L385.4,77.9v80.8H351V5.17Zm128,0h34.45V99c0,25.52,16.37,40,42.74,40,25.52,0,42.53-12.55,42.53-40.83V5.17h34.45V97.46c0,35.09-14.68,65.29-82.3,65.29-37.21,0-71.87-18.93-71.87-59.12V5.17Zm239.45,0,58,125,57-125h57.42V158.7H890.87V26.86h-.43l-60,131.84h-42.1L726.93,26.86h-.43V158.7h-31V5.17Zm207.65,0H995V158.7H960.52V5.17Zm0,0" transform="translate(-4.75 -5.17)"></path></svg> 